<mxfile host="app.diagrams.net" agent="Mozilla/5.0 (X11; Linux x86_64) AppleWebKit/537.36 (KHTML, like Gecko) Chrome/128.0.0.0 Safari/537.36" version="24.7.16">
  <diagram name="Страница — 1" id="ZFX-WdE172iCxwusnQc_">
    <mxGraphModel dx="1565" dy="501" grid="1" gridSize="10" guides="1" tooltips="1" connect="1" arrows="1" fold="1" page="1" pageScale="1" pageWidth="827" pageHeight="1169" math="0" shadow="0">
      <root>
        <mxCell id="0" />
        <mxCell id="1" parent="0" />
        <mxCell id="6LV5nUp8noVy1dfyO0To-33" value="" style="shape=internalStorage;whiteSpace=wrap;html=1;backgroundOutline=1;dx=30;dy=20;" parent="1" vertex="1">
          <mxGeometry x="-20" y="150" width="150" height="140" as="geometry" />
        </mxCell>
        <mxCell id="6LV5nUp8noVy1dfyO0To-34" value="Confirmation codes" style="text;html=1;align=center;verticalAlign=middle;whiteSpace=wrap;rounded=0;" parent="1" vertex="1">
          <mxGeometry x="10" y="150" width="120" height="20" as="geometry" />
        </mxCell>
        <mxCell id="G2iC6kTOo3n6NB2YhTY6-28" style="edgeStyle=orthogonalEdgeStyle;rounded=0;orthogonalLoop=1;jettySize=auto;html=1;exitX=1;exitY=0.5;exitDx=0;exitDy=0;entryX=0;entryY=0.25;entryDx=0;entryDy=0;endArrow=ERone;endFill=0;startArrow=ERzeroToMany;startFill=0;" parent="1" source="6LV5nUp8noVy1dfyO0To-37" target="6LV5nUp8noVy1dfyO0To-15" edge="1">
          <mxGeometry relative="1" as="geometry">
            <Array as="points">
              <mxPoint x="150" y="220" />
              <mxPoint x="150" y="293" />
            </Array>
          </mxGeometry>
        </mxCell>
        <mxCell id="6LV5nUp8noVy1dfyO0To-35" value="id" style="text;html=1;align=left;verticalAlign=middle;whiteSpace=wrap;rounded=0;" parent="1" vertex="1">
          <mxGeometry x="10" y="170" width="120" height="20" as="geometry" />
        </mxCell>
        <mxCell id="6LV5nUp8noVy1dfyO0To-36" value="code" style="text;html=1;align=left;verticalAlign=middle;whiteSpace=wrap;rounded=0;" parent="1" vertex="1">
          <mxGeometry x="10" y="190" width="120" height="20" as="geometry" />
        </mxCell>
        <mxCell id="6LV5nUp8noVy1dfyO0To-37" value="user_id" style="text;html=1;align=left;verticalAlign=middle;whiteSpace=wrap;rounded=0;" parent="1" vertex="1">
          <mxGeometry x="10" y="210" width="120" height="20" as="geometry" />
        </mxCell>
        <mxCell id="6LV5nUp8noVy1dfyO0To-38" value="expired_at" style="text;html=1;align=left;verticalAlign=middle;whiteSpace=wrap;rounded=0;" parent="1" vertex="1">
          <mxGeometry x="10" y="230" width="120" height="20" as="geometry" />
        </mxCell>
        <mxCell id="6LV5nUp8noVy1dfyO0To-39" value="is_used" style="text;html=1;align=left;verticalAlign=middle;whiteSpace=wrap;rounded=0;" parent="1" vertex="1">
          <mxGeometry x="10" y="250" width="120" height="20" as="geometry" />
        </mxCell>
        <mxCell id="6LV5nUp8noVy1dfyO0To-45" value="PK" style="text;html=1;align=center;verticalAlign=middle;whiteSpace=wrap;rounded=0;" parent="1" vertex="1">
          <mxGeometry x="-20" y="170" width="30" height="20" as="geometry" />
        </mxCell>
        <mxCell id="6LV5nUp8noVy1dfyO0To-19" value="" style="shape=internalStorage;whiteSpace=wrap;html=1;backgroundOutline=1;dx=30;dy=20;" parent="1" vertex="1">
          <mxGeometry x="-20" y="598.5" width="150" height="181.5" as="geometry" />
        </mxCell>
        <mxCell id="6LV5nUp8noVy1dfyO0To-20" value="Sessions" style="text;html=1;align=center;verticalAlign=middle;whiteSpace=wrap;rounded=0;" parent="1" vertex="1">
          <mxGeometry x="10" y="598.5" width="120" height="20" as="geometry" />
        </mxCell>
        <mxCell id="6LV5nUp8noVy1dfyO0To-21" value="id" style="text;html=1;align=left;verticalAlign=middle;whiteSpace=wrap;rounded=0;" parent="1" vertex="1">
          <mxGeometry x="10" y="618.5" width="120" height="20" as="geometry" />
        </mxCell>
        <mxCell id="6LV5nUp8noVy1dfyO0To-22" value="user_id" style="text;html=1;align=left;verticalAlign=middle;whiteSpace=wrap;rounded=0;" parent="1" vertex="1">
          <mxGeometry x="10" y="638.5" width="120" height="20" as="geometry" />
        </mxCell>
        <mxCell id="6LV5nUp8noVy1dfyO0To-23" value="ip" style="text;html=1;align=left;verticalAlign=middle;whiteSpace=wrap;rounded=0;" parent="1" vertex="1">
          <mxGeometry x="10" y="658.5" width="120" height="20" as="geometry" />
        </mxCell>
        <mxCell id="6LV5nUp8noVy1dfyO0To-24" value="is_active" style="text;html=1;align=left;verticalAlign=middle;whiteSpace=wrap;rounded=0;" parent="1" vertex="1">
          <mxGeometry x="10" y="678.5" width="120" height="20" as="geometry" />
        </mxCell>
        <mxCell id="6LV5nUp8noVy1dfyO0To-25" value="is_closed" style="text;html=1;align=left;verticalAlign=middle;whiteSpace=wrap;rounded=0;" parent="1" vertex="1">
          <mxGeometry x="10" y="698.5" width="120" height="20" as="geometry" />
        </mxCell>
        <mxCell id="6LV5nUp8noVy1dfyO0To-31" value="PK" style="text;html=1;align=center;verticalAlign=middle;whiteSpace=wrap;rounded=0;" parent="1" vertex="1">
          <mxGeometry x="-20" y="618.5" width="30" height="20" as="geometry" />
        </mxCell>
        <mxCell id="6LV5nUp8noVy1dfyO0To-46" value="created_at" style="text;html=1;align=left;verticalAlign=middle;whiteSpace=wrap;rounded=0;" parent="1" vertex="1">
          <mxGeometry x="10" y="270" width="120" height="20" as="geometry" />
        </mxCell>
        <mxCell id="6LV5nUp8noVy1dfyO0To-47" value="created_at" style="text;html=1;align=left;verticalAlign=middle;whiteSpace=wrap;rounded=0;" parent="1" vertex="1">
          <mxGeometry x="10" y="738.5" width="120" height="20" as="geometry" />
        </mxCell>
        <mxCell id="6LV5nUp8noVy1dfyO0To-48" value="closed_at" style="text;html=1;align=left;verticalAlign=middle;whiteSpace=wrap;rounded=0;" parent="1" vertex="1">
          <mxGeometry x="10" y="758.5" width="120" height="20" as="geometry" />
        </mxCell>
        <mxCell id="6LV5nUp8noVy1dfyO0To-49" value="FK1" style="text;html=1;align=center;verticalAlign=middle;whiteSpace=wrap;rounded=0;" parent="1" vertex="1">
          <mxGeometry x="-20" y="210" width="30" height="20" as="geometry" />
        </mxCell>
        <mxCell id="6LV5nUp8noVy1dfyO0To-50" value="FK1" style="text;html=1;align=center;verticalAlign=middle;whiteSpace=wrap;rounded=0;" parent="1" vertex="1">
          <mxGeometry x="-20" y="638.5" width="30" height="20" as="geometry" />
        </mxCell>
        <mxCell id="6LV5nUp8noVy1dfyO0To-1" value="" style="shape=internalStorage;whiteSpace=wrap;html=1;backgroundOutline=1;dx=30;dy=20;" parent="1" vertex="1">
          <mxGeometry x="190" y="268" width="150" height="220" as="geometry" />
        </mxCell>
        <mxCell id="6LV5nUp8noVy1dfyO0To-3" value="Users" style="text;html=1;align=center;verticalAlign=middle;whiteSpace=wrap;rounded=0;" parent="1" vertex="1">
          <mxGeometry x="220" y="268" width="120" height="20" as="geometry" />
        </mxCell>
        <mxCell id="G2iC6kTOo3n6NB2YhTY6-36" style="edgeStyle=orthogonalEdgeStyle;rounded=0;orthogonalLoop=1;jettySize=auto;html=1;exitX=1;exitY=1;exitDx=0;exitDy=0;entryX=1;entryY=0.5;entryDx=0;entryDy=0;startArrow=ERone;startFill=0;endArrow=ERzeroToMany;endFill=0;" parent="1" source="6LV5nUp8noVy1dfyO0To-4" target="6LV5nUp8noVy1dfyO0To-140" edge="1">
          <mxGeometry relative="1" as="geometry">
            <Array as="points">
              <mxPoint x="360" y="308" />
              <mxPoint x="360" y="576" />
            </Array>
          </mxGeometry>
        </mxCell>
        <mxCell id="G2iC6kTOo3n6NB2YhTY6-37" style="edgeStyle=orthogonalEdgeStyle;rounded=0;orthogonalLoop=1;jettySize=auto;html=1;exitX=1;exitY=0.5;exitDx=0;exitDy=0;entryX=0;entryY=0.5;entryDx=0;entryDy=0;endArrow=ERzeroToMany;endFill=0;startArrow=ERone;startFill=0;" parent="1" source="6LV5nUp8noVy1dfyO0To-4" target="6LV5nUp8noVy1dfyO0To-130" edge="1">
          <mxGeometry relative="1" as="geometry" />
        </mxCell>
        <mxCell id="G2iC6kTOo3n6NB2YhTY6-38" style="edgeStyle=orthogonalEdgeStyle;rounded=0;orthogonalLoop=1;jettySize=auto;html=1;exitX=1;exitY=0;exitDx=0;exitDy=0;entryX=0;entryY=0.5;entryDx=0;entryDy=0;endArrow=ERzeroToMany;endFill=0;startArrow=ERone;startFill=0;" parent="1" source="6LV5nUp8noVy1dfyO0To-4" target="6LV5nUp8noVy1dfyO0To-76" edge="1">
          <mxGeometry relative="1" as="geometry">
            <Array as="points">
              <mxPoint x="380" y="288" />
              <mxPoint x="380" y="431" />
            </Array>
          </mxGeometry>
        </mxCell>
        <mxCell id="6LV5nUp8noVy1dfyO0To-4" value="id" style="text;html=1;align=left;verticalAlign=middle;whiteSpace=wrap;rounded=0;" parent="1" vertex="1">
          <mxGeometry x="220" y="288" width="120" height="20" as="geometry" />
        </mxCell>
        <mxCell id="6LV5nUp8noVy1dfyO0To-5" value="name" style="text;html=1;align=left;verticalAlign=middle;whiteSpace=wrap;rounded=0;" parent="1" vertex="1">
          <mxGeometry x="220" y="308" width="120" height="20" as="geometry" />
        </mxCell>
        <mxCell id="6LV5nUp8noVy1dfyO0To-6" value="role_id" style="text;html=1;align=left;verticalAlign=middle;whiteSpace=wrap;rounded=0;" parent="1" vertex="1">
          <mxGeometry x="220" y="328" width="120" height="20" as="geometry" />
        </mxCell>
        <mxCell id="6LV5nUp8noVy1dfyO0To-7" value="email" style="text;html=1;align=left;verticalAlign=middle;whiteSpace=wrap;rounded=0;" parent="1" vertex="1">
          <mxGeometry x="220" y="348" width="120" height="20" as="geometry" />
        </mxCell>
        <mxCell id="6LV5nUp8noVy1dfyO0To-8" value="email_verified" style="text;html=1;align=left;verticalAlign=middle;whiteSpace=wrap;rounded=0;" parent="1" vertex="1">
          <mxGeometry x="220" y="368" width="120" height="20" as="geometry" />
        </mxCell>
        <mxCell id="6LV5nUp8noVy1dfyO0To-9" value="password_hash" style="text;html=1;align=left;verticalAlign=middle;whiteSpace=wrap;rounded=0;" parent="1" vertex="1">
          <mxGeometry x="220" y="388" width="120" height="20" as="geometry" />
        </mxCell>
        <mxCell id="6LV5nUp8noVy1dfyO0To-10" value="logged_with_provider" style="text;html=1;align=left;verticalAlign=middle;whiteSpace=wrap;rounded=0;" parent="1" vertex="1">
          <mxGeometry x="220" y="408" width="120" height="20" as="geometry" />
        </mxCell>
        <mxCell id="6LV5nUp8noVy1dfyO0To-12" value="provider_id" style="text;html=1;align=left;verticalAlign=middle;whiteSpace=wrap;rounded=0;" parent="1" vertex="1">
          <mxGeometry x="220" y="428" width="120" height="20" as="geometry" />
        </mxCell>
        <mxCell id="6LV5nUp8noVy1dfyO0To-13" value="created_at" style="text;html=1;align=left;verticalAlign=middle;whiteSpace=wrap;rounded=0;" parent="1" vertex="1">
          <mxGeometry x="220" y="448" width="120" height="20" as="geometry" />
        </mxCell>
        <mxCell id="6LV5nUp8noVy1dfyO0To-14" value="deleted_at" style="text;html=1;align=left;verticalAlign=middle;whiteSpace=wrap;rounded=0;" parent="1" vertex="1">
          <mxGeometry x="220" y="468" width="120" height="20" as="geometry" />
        </mxCell>
        <mxCell id="G2iC6kTOo3n6NB2YhTY6-30" style="edgeStyle=orthogonalEdgeStyle;rounded=0;orthogonalLoop=1;jettySize=auto;html=1;exitX=0;exitY=0.75;exitDx=0;exitDy=0;entryX=1;entryY=0.5;entryDx=0;entryDy=0;endArrow=ERzeroToMany;endFill=0;startArrow=ERone;startFill=0;" parent="1" source="6LV5nUp8noVy1dfyO0To-15" target="G2iC6kTOo3n6NB2YhTY6-21" edge="1">
          <mxGeometry relative="1" as="geometry">
            <Array as="points">
              <mxPoint x="150" y="303" />
              <mxPoint x="150" y="480" />
            </Array>
          </mxGeometry>
        </mxCell>
        <mxCell id="G2iC6kTOo3n6NB2YhTY6-31" style="edgeStyle=orthogonalEdgeStyle;rounded=0;orthogonalLoop=1;jettySize=auto;html=1;exitX=0;exitY=1;exitDx=0;exitDy=0;entryX=1;entryY=0.5;entryDx=0;entryDy=0;endArrow=ERzeroToMany;endFill=0;startArrow=ERone;startFill=0;" parent="1" source="6LV5nUp8noVy1dfyO0To-15" target="6LV5nUp8noVy1dfyO0To-22" edge="1">
          <mxGeometry relative="1" as="geometry">
            <Array as="points">
              <mxPoint x="160" y="308" />
              <mxPoint x="160" y="649" />
            </Array>
          </mxGeometry>
        </mxCell>
        <mxCell id="G2iC6kTOo3n6NB2YhTY6-39" style="edgeStyle=orthogonalEdgeStyle;rounded=0;orthogonalLoop=1;jettySize=auto;html=1;exitX=0;exitY=0;exitDx=0;exitDy=0;entryX=0;entryY=0.5;entryDx=0;entryDy=0;startArrow=ERone;startFill=0;endArrow=ERzeroToMany;endFill=0;" parent="1" source="6LV5nUp8noVy1dfyO0To-15" target="6LV5nUp8noVy1dfyO0To-97" edge="1">
          <mxGeometry relative="1" as="geometry">
            <Array as="points">
              <mxPoint x="170" y="288" />
              <mxPoint x="170" y="240" />
            </Array>
          </mxGeometry>
        </mxCell>
        <mxCell id="6LV5nUp8noVy1dfyO0To-15" value="PK" style="text;html=1;align=center;verticalAlign=middle;whiteSpace=wrap;rounded=0;" parent="1" vertex="1">
          <mxGeometry x="190" y="288" width="30" height="20" as="geometry" />
        </mxCell>
        <mxCell id="6LV5nUp8noVy1dfyO0To-63" value="" style="shape=internalStorage;whiteSpace=wrap;html=1;backgroundOutline=1;dx=30;dy=20;" parent="1" vertex="1">
          <mxGeometry x="400" y="330" width="150" height="230" as="geometry" />
        </mxCell>
        <mxCell id="6LV5nUp8noVy1dfyO0To-64" value="Articles" style="text;html=1;align=center;verticalAlign=middle;whiteSpace=wrap;rounded=0;" parent="1" vertex="1">
          <mxGeometry x="430" y="330" width="120" height="19" as="geometry" />
        </mxCell>
        <mxCell id="G2iC6kTOo3n6NB2YhTY6-34" style="edgeStyle=orthogonalEdgeStyle;rounded=0;orthogonalLoop=1;jettySize=auto;html=1;exitX=1;exitY=0.75;exitDx=0;exitDy=0;entryX=1;entryY=0.5;entryDx=0;entryDy=0;endArrow=ERzeroToOne;endFill=0;startArrow=ERone;startFill=0;" parent="1" source="6LV5nUp8noVy1dfyO0To-65" target="6LV5nUp8noVy1dfyO0To-124" edge="1">
          <mxGeometry relative="1" as="geometry">
            <Array as="points">
              <mxPoint x="580" y="367" />
              <mxPoint x="580" y="641" />
            </Array>
          </mxGeometry>
        </mxCell>
        <mxCell id="G2iC6kTOo3n6NB2YhTY6-59" style="edgeStyle=orthogonalEdgeStyle;rounded=0;orthogonalLoop=1;jettySize=auto;html=1;exitX=1;exitY=0;exitDx=0;exitDy=0;entryX=0;entryY=0.5;entryDx=0;entryDy=0;endArrow=ERzeroToMany;endFill=0;startArrow=ERone;startFill=0;" parent="1" source="6LV5nUp8noVy1dfyO0To-65" target="6LV5nUp8noVy1dfyO0To-161" edge="1">
          <mxGeometry relative="1" as="geometry">
            <Array as="points">
              <mxPoint x="600" y="350" />
              <mxPoint x="600" y="412" />
            </Array>
          </mxGeometry>
        </mxCell>
        <mxCell id="G2iC6kTOo3n6NB2YhTY6-60" style="edgeStyle=orthogonalEdgeStyle;rounded=0;orthogonalLoop=1;jettySize=auto;html=1;exitX=1;exitY=1;exitDx=0;exitDy=0;entryX=1;entryY=0.5;entryDx=0;entryDy=0;startArrow=ERone;startFill=0;endArrow=ERzeroToMany;endFill=0;" parent="1" source="6LV5nUp8noVy1dfyO0To-65" target="6LV5nUp8noVy1dfyO0To-71" edge="1">
          <mxGeometry relative="1" as="geometry">
            <Array as="points">
              <mxPoint x="570" y="373" />
              <mxPoint x="570" y="477" />
            </Array>
          </mxGeometry>
        </mxCell>
        <mxCell id="G2iC6kTOo3n6NB2YhTY6-62" style="edgeStyle=orthogonalEdgeStyle;rounded=0;orthogonalLoop=1;jettySize=auto;html=1;exitX=1;exitY=0.25;exitDx=0;exitDy=0;entryX=0;entryY=0.5;entryDx=0;entryDy=0;startArrow=ERone;startFill=0;endArrow=ERone;endFill=0;" parent="1" source="6LV5nUp8noVy1dfyO0To-65" target="6LV5nUp8noVy1dfyO0To-162" edge="1">
          <mxGeometry relative="1" as="geometry">
            <Array as="points">
              <mxPoint x="590" y="356" />
              <mxPoint x="590" y="495" />
            </Array>
          </mxGeometry>
        </mxCell>
        <mxCell id="6LV5nUp8noVy1dfyO0To-65" value="id" style="text;html=1;align=left;verticalAlign=middle;whiteSpace=wrap;rounded=0;" parent="1" vertex="1">
          <mxGeometry x="430" y="350" width="120" height="23" as="geometry" />
        </mxCell>
        <mxCell id="6LV5nUp8noVy1dfyO0To-66" value="title" style="text;html=1;align=left;verticalAlign=middle;whiteSpace=wrap;rounded=0;" parent="1" vertex="1">
          <mxGeometry x="430" y="373" width="120" height="23" as="geometry" />
        </mxCell>
        <mxCell id="6LV5nUp8noVy1dfyO0To-67" value="text" style="text;html=1;align=left;verticalAlign=middle;whiteSpace=wrap;rounded=0;" parent="1" vertex="1">
          <mxGeometry x="430" y="396" width="120" height="23" as="geometry" />
        </mxCell>
        <mxCell id="6LV5nUp8noVy1dfyO0To-68" value="user_id" style="text;html=1;align=left;verticalAlign=middle;whiteSpace=wrap;rounded=0;" parent="1" vertex="1">
          <mxGeometry x="430" y="419" width="120" height="23" as="geometry" />
        </mxCell>
        <mxCell id="6LV5nUp8noVy1dfyO0To-69" value="language_id" style="text;html=1;align=left;verticalAlign=middle;whiteSpace=wrap;rounded=0;" parent="1" vertex="1">
          <mxGeometry x="430" y="442" width="120" height="23" as="geometry" />
        </mxCell>
        <mxCell id="6LV5nUp8noVy1dfyO0To-70" value="PK" style="text;html=1;align=center;verticalAlign=middle;whiteSpace=wrap;rounded=0;" parent="1" vertex="1">
          <mxGeometry x="400" y="350" width="30" height="23" as="geometry" />
        </mxCell>
        <mxCell id="6LV5nUp8noVy1dfyO0To-71" value="original_article_id" style="text;html=1;align=left;verticalAlign=middle;whiteSpace=wrap;rounded=0;" parent="1" vertex="1">
          <mxGeometry x="430" y="465" width="120" height="23" as="geometry" />
        </mxCell>
        <mxCell id="6LV5nUp8noVy1dfyO0To-72" value="like" style="text;html=1;align=left;verticalAlign=middle;whiteSpace=wrap;rounded=0;" parent="1" vertex="1">
          <mxGeometry x="430" y="488" width="120" height="23" as="geometry" />
        </mxCell>
        <mxCell id="6LV5nUp8noVy1dfyO0To-74" value="created_at" style="text;html=1;align=left;verticalAlign=middle;whiteSpace=wrap;rounded=0;" parent="1" vertex="1">
          <mxGeometry x="430" y="511" width="120" height="23" as="geometry" />
        </mxCell>
        <mxCell id="6LV5nUp8noVy1dfyO0To-75" value="deteled_at" style="text;html=1;align=left;verticalAlign=middle;whiteSpace=wrap;rounded=0;" parent="1" vertex="1">
          <mxGeometry x="430" y="534" width="120" height="23" as="geometry" />
        </mxCell>
        <mxCell id="6LV5nUp8noVy1dfyO0To-76" value="FK1" style="text;html=1;align=center;verticalAlign=middle;whiteSpace=wrap;rounded=0;" parent="1" vertex="1">
          <mxGeometry x="400" y="419" width="30" height="23" as="geometry" />
        </mxCell>
        <mxCell id="6LV5nUp8noVy1dfyO0To-77" value="FK2" style="text;html=1;align=center;verticalAlign=middle;whiteSpace=wrap;rounded=0;" parent="1" vertex="1">
          <mxGeometry x="400" y="442" width="30" height="23" as="geometry" />
        </mxCell>
        <mxCell id="6LV5nUp8noVy1dfyO0To-78" value="FK3" style="text;html=1;align=center;verticalAlign=middle;whiteSpace=wrap;rounded=0;" parent="1" vertex="1">
          <mxGeometry x="400" y="465" width="30" height="23" as="geometry" />
        </mxCell>
        <mxCell id="6LV5nUp8noVy1dfyO0To-79" value="" style="shape=internalStorage;whiteSpace=wrap;html=1;backgroundOutline=1;dx=30;dy=19;" parent="1" vertex="1">
          <mxGeometry x="400" y="140" width="150" height="180" as="geometry" />
        </mxCell>
        <mxCell id="6LV5nUp8noVy1dfyO0To-80" value="Notifications" style="text;html=1;align=center;verticalAlign=middle;whiteSpace=wrap;rounded=0;" parent="1" vertex="1">
          <mxGeometry x="430" y="140" width="120" height="19" as="geometry" />
        </mxCell>
        <mxCell id="6LV5nUp8noVy1dfyO0To-81" value="id" style="text;html=1;align=left;verticalAlign=middle;whiteSpace=wrap;rounded=0;" parent="1" vertex="1">
          <mxGeometry x="430" y="160" width="120" height="23" as="geometry" />
        </mxCell>
        <mxCell id="6LV5nUp8noVy1dfyO0To-82" value="title" style="text;html=1;align=left;verticalAlign=middle;whiteSpace=wrap;rounded=0;" parent="1" vertex="1">
          <mxGeometry x="430" y="183" width="120" height="23" as="geometry" />
        </mxCell>
        <mxCell id="6LV5nUp8noVy1dfyO0To-83" value="text" style="text;html=1;align=left;verticalAlign=middle;whiteSpace=wrap;rounded=0;" parent="1" vertex="1">
          <mxGeometry x="430" y="206" width="120" height="23" as="geometry" />
        </mxCell>
        <mxCell id="6LV5nUp8noVy1dfyO0To-84" value="user_id" style="text;html=1;align=left;verticalAlign=middle;whiteSpace=wrap;rounded=0;" parent="1" vertex="1">
          <mxGeometry x="430" y="229" width="120" height="23" as="geometry" />
        </mxCell>
        <mxCell id="6LV5nUp8noVy1dfyO0To-86" value="PK" style="text;html=1;align=center;verticalAlign=middle;whiteSpace=wrap;rounded=0;" parent="1" vertex="1">
          <mxGeometry x="400" y="160" width="30" height="23" as="geometry" />
        </mxCell>
        <mxCell id="6LV5nUp8noVy1dfyO0To-94" value="type" style="text;html=1;align=left;verticalAlign=middle;whiteSpace=wrap;rounded=0;" parent="1" vertex="1">
          <mxGeometry x="430" y="252" width="120" height="23" as="geometry" />
        </mxCell>
        <mxCell id="6LV5nUp8noVy1dfyO0To-95" value="read_at" style="text;html=1;align=left;verticalAlign=middle;whiteSpace=wrap;rounded=0;" parent="1" vertex="1">
          <mxGeometry x="430" y="275" width="120" height="23" as="geometry" />
        </mxCell>
        <mxCell id="6LV5nUp8noVy1dfyO0To-96" value="created_at" style="text;html=1;align=left;verticalAlign=middle;whiteSpace=wrap;rounded=0;" parent="1" vertex="1">
          <mxGeometry x="430" y="298" width="120" height="23" as="geometry" />
        </mxCell>
        <mxCell id="6LV5nUp8noVy1dfyO0To-97" value="FK1" style="text;html=1;align=center;verticalAlign=middle;whiteSpace=wrap;rounded=0;" parent="1" vertex="1">
          <mxGeometry x="400" y="229" width="30" height="23" as="geometry" />
        </mxCell>
        <mxCell id="6LV5nUp8noVy1dfyO0To-109" value="" style="shape=internalStorage;whiteSpace=wrap;html=1;backgroundOutline=1;dx=30;dy=20;" parent="1" vertex="1">
          <mxGeometry x="190" y="668.5" width="150" height="89" as="geometry" />
        </mxCell>
        <mxCell id="6LV5nUp8noVy1dfyO0To-110" value="Report reasons" style="text;html=1;align=center;verticalAlign=middle;whiteSpace=wrap;rounded=0;" parent="1" vertex="1">
          <mxGeometry x="220" y="668.5" width="120" height="20" as="geometry" />
        </mxCell>
        <mxCell id="G2iC6kTOo3n6NB2YhTY6-33" style="edgeStyle=orthogonalEdgeStyle;rounded=0;orthogonalLoop=1;jettySize=auto;html=1;exitX=1;exitY=0.5;exitDx=0;exitDy=0;entryX=0;entryY=0.25;entryDx=0;entryDy=0;startArrow=ERone;startFill=0;endArrow=ERzeroToMany;endFill=0;" parent="1" source="6LV5nUp8noVy1dfyO0To-111" target="G2iC6kTOo3n6NB2YhTY6-32" edge="1">
          <mxGeometry relative="1" as="geometry" />
        </mxCell>
        <mxCell id="6LV5nUp8noVy1dfyO0To-111" value="id" style="text;html=1;align=left;verticalAlign=middle;whiteSpace=wrap;rounded=0;" parent="1" vertex="1">
          <mxGeometry x="220" y="688.5" width="120" height="20" as="geometry" />
        </mxCell>
        <mxCell id="6LV5nUp8noVy1dfyO0To-112" value="text" style="text;html=1;align=left;verticalAlign=middle;whiteSpace=wrap;rounded=0;" parent="1" vertex="1">
          <mxGeometry x="220" y="708.5" width="120" height="20" as="geometry" />
        </mxCell>
        <mxCell id="6LV5nUp8noVy1dfyO0To-113" value="order_position" style="text;html=1;align=left;verticalAlign=middle;whiteSpace=wrap;rounded=0;" parent="1" vertex="1">
          <mxGeometry x="220" y="728.5" width="120" height="20" as="geometry" />
        </mxCell>
        <mxCell id="6LV5nUp8noVy1dfyO0To-116" value="PK" style="text;html=1;align=center;verticalAlign=middle;whiteSpace=wrap;rounded=0;" parent="1" vertex="1">
          <mxGeometry x="190" y="688.5" width="30" height="20" as="geometry" />
        </mxCell>
        <mxCell id="6LV5nUp8noVy1dfyO0To-120" value="" style="shape=internalStorage;whiteSpace=wrap;html=1;backgroundOutline=1;dx=30;dy=20;" parent="1" vertex="1">
          <mxGeometry x="400" y="571" width="150" height="187" as="geometry" />
        </mxCell>
        <mxCell id="6LV5nUp8noVy1dfyO0To-121" value="Reports" style="text;html=1;align=center;verticalAlign=middle;whiteSpace=wrap;rounded=0;" parent="1" vertex="1">
          <mxGeometry x="430" y="571" width="120" height="20" as="geometry" />
        </mxCell>
        <mxCell id="6LV5nUp8noVy1dfyO0To-122" value="id" style="text;html=1;align=left;verticalAlign=middle;whiteSpace=wrap;rounded=0;" parent="1" vertex="1">
          <mxGeometry x="430" y="591" width="120" height="20" as="geometry" />
        </mxCell>
        <mxCell id="6LV5nUp8noVy1dfyO0To-123" value="text" style="text;html=1;align=left;verticalAlign=middle;whiteSpace=wrap;rounded=0;" parent="1" vertex="1">
          <mxGeometry x="430" y="611" width="120" height="20" as="geometry" />
        </mxCell>
        <mxCell id="6LV5nUp8noVy1dfyO0To-124" value="article_id" style="text;html=1;align=left;verticalAlign=middle;whiteSpace=wrap;rounded=0;" parent="1" vertex="1">
          <mxGeometry x="430" y="631" width="120" height="20" as="geometry" />
        </mxCell>
        <mxCell id="6LV5nUp8noVy1dfyO0To-125" value="PK" style="text;html=1;align=center;verticalAlign=middle;whiteSpace=wrap;rounded=0;" parent="1" vertex="1">
          <mxGeometry x="400" y="591" width="30" height="20" as="geometry" />
        </mxCell>
        <mxCell id="6LV5nUp8noVy1dfyO0To-126" value="status" style="text;html=1;align=left;verticalAlign=middle;whiteSpace=wrap;rounded=0;" parent="1" vertex="1">
          <mxGeometry x="430" y="653" width="120" height="20" as="geometry" />
        </mxCell>
        <mxCell id="6LV5nUp8noVy1dfyO0To-127" value="reason_id" style="text;html=1;align=left;verticalAlign=middle;whiteSpace=wrap;rounded=0;" parent="1" vertex="1">
          <mxGeometry x="430" y="693" width="120" height="20" as="geometry" />
        </mxCell>
        <mxCell id="6LV5nUp8noVy1dfyO0To-128" value="closed_by_user_id" style="text;html=1;align=left;verticalAlign=middle;whiteSpace=wrap;rounded=0;" parent="1" vertex="1">
          <mxGeometry x="430" y="673" width="120" height="20" as="geometry" />
        </mxCell>
        <mxCell id="6LV5nUp8noVy1dfyO0To-129" value="FK1" style="text;html=1;align=center;verticalAlign=middle;whiteSpace=wrap;rounded=0;" parent="1" vertex="1">
          <mxGeometry x="400" y="631" width="30" height="20" as="geometry" />
        </mxCell>
        <mxCell id="6LV5nUp8noVy1dfyO0To-130" value="FK2" style="text;html=1;align=center;verticalAlign=middle;whiteSpace=wrap;rounded=0;" parent="1" vertex="1">
          <mxGeometry x="400" y="673" width="30" height="20" as="geometry" />
        </mxCell>
        <mxCell id="6LV5nUp8noVy1dfyO0To-131" value="created_at" style="text;html=1;align=left;verticalAlign=middle;whiteSpace=wrap;rounded=0;" parent="1" vertex="1">
          <mxGeometry x="430" y="713" width="120" height="20" as="geometry" />
        </mxCell>
        <mxCell id="6LV5nUp8noVy1dfyO0To-132" value="closed_at" style="text;html=1;align=left;verticalAlign=middle;whiteSpace=wrap;rounded=0;" parent="1" vertex="1">
          <mxGeometry x="430" y="733" width="120" height="20" as="geometry" />
        </mxCell>
        <mxCell id="6LV5nUp8noVy1dfyO0To-134" value="" style="shape=internalStorage;whiteSpace=wrap;html=1;backgroundOutline=1;dx=30;dy=20;" parent="1" vertex="1">
          <mxGeometry x="190" y="506" width="150" height="124" as="geometry" />
        </mxCell>
        <mxCell id="6LV5nUp8noVy1dfyO0To-135" value="Comments" style="text;html=1;align=center;verticalAlign=middle;whiteSpace=wrap;rounded=0;" parent="1" vertex="1">
          <mxGeometry x="220" y="506" width="120" height="20" as="geometry" />
        </mxCell>
        <mxCell id="6LV5nUp8noVy1dfyO0To-136" value="id" style="text;html=1;align=left;verticalAlign=middle;whiteSpace=wrap;rounded=0;" parent="1" vertex="1">
          <mxGeometry x="220" y="526" width="120" height="20" as="geometry" />
        </mxCell>
        <mxCell id="6LV5nUp8noVy1dfyO0To-137" value="text" style="text;html=1;align=left;verticalAlign=middle;whiteSpace=wrap;rounded=0;" parent="1" vertex="1">
          <mxGeometry x="220" y="546" width="120" height="20" as="geometry" />
        </mxCell>
        <mxCell id="6LV5nUp8noVy1dfyO0To-138" value="report_id" style="text;html=1;align=left;verticalAlign=middle;whiteSpace=wrap;rounded=0;" parent="1" vertex="1">
          <mxGeometry x="220" y="586" width="120" height="20" as="geometry" />
        </mxCell>
        <mxCell id="6LV5nUp8noVy1dfyO0To-139" value="PK" style="text;html=1;align=center;verticalAlign=middle;whiteSpace=wrap;rounded=0;" parent="1" vertex="1">
          <mxGeometry x="190" y="526" width="30" height="20" as="geometry" />
        </mxCell>
        <mxCell id="6LV5nUp8noVy1dfyO0To-140" value="sender_id" style="text;html=1;align=left;verticalAlign=middle;whiteSpace=wrap;rounded=0;" parent="1" vertex="1">
          <mxGeometry x="220" y="566" width="120" height="20" as="geometry" />
        </mxCell>
        <mxCell id="6LV5nUp8noVy1dfyO0To-141" value="created_at" style="text;html=1;align=left;verticalAlign=middle;whiteSpace=wrap;rounded=0;" parent="1" vertex="1">
          <mxGeometry x="220" y="608" width="120" height="20" as="geometry" />
        </mxCell>
        <mxCell id="6LV5nUp8noVy1dfyO0To-143" value="FK1" style="text;html=1;align=center;verticalAlign=middle;whiteSpace=wrap;rounded=0;" parent="1" vertex="1">
          <mxGeometry x="190" y="566" width="30" height="20" as="geometry" />
        </mxCell>
        <mxCell id="6LV5nUp8noVy1dfyO0To-144" value="FK2" style="text;html=1;align=center;verticalAlign=middle;whiteSpace=wrap;rounded=0;" parent="1" vertex="1">
          <mxGeometry x="190" y="586" width="30" height="20" as="geometry" />
        </mxCell>
        <mxCell id="6LV5nUp8noVy1dfyO0To-148" value="" style="shape=internalStorage;whiteSpace=wrap;html=1;backgroundOutline=1;dx=30;dy=20;" parent="1" vertex="1">
          <mxGeometry x="616" y="362" width="150" height="185" as="geometry" />
        </mxCell>
        <mxCell id="6LV5nUp8noVy1dfyO0To-149" value="Translation tasks" style="text;html=1;align=center;verticalAlign=middle;whiteSpace=wrap;rounded=0;" parent="1" vertex="1">
          <mxGeometry x="646" y="362" width="120" height="20" as="geometry" />
        </mxCell>
        <mxCell id="6LV5nUp8noVy1dfyO0To-150" value="id" style="text;html=1;align=left;verticalAlign=middle;whiteSpace=wrap;rounded=0;" parent="1" vertex="1">
          <mxGeometry x="646" y="382" width="120" height="20" as="geometry" />
        </mxCell>
        <mxCell id="6LV5nUp8noVy1dfyO0To-151" value="article_id" style="text;html=1;align=left;verticalAlign=middle;whiteSpace=wrap;rounded=0;" parent="1" vertex="1">
          <mxGeometry x="646" y="402" width="120" height="20" as="geometry" />
        </mxCell>
        <mxCell id="6LV5nUp8noVy1dfyO0To-152" value="source_language_id" style="text;html=1;align=left;verticalAlign=middle;whiteSpace=wrap;rounded=0;" parent="1" vertex="1">
          <mxGeometry x="646" y="422" width="120" height="20" as="geometry" />
        </mxCell>
        <mxCell id="6LV5nUp8noVy1dfyO0To-153" value="PK" style="text;html=1;align=center;verticalAlign=middle;whiteSpace=wrap;rounded=0;" parent="1" vertex="1">
          <mxGeometry x="616" y="382" width="30" height="20" as="geometry" />
        </mxCell>
        <mxCell id="6LV5nUp8noVy1dfyO0To-154" value="target_language_id" style="text;html=1;align=left;verticalAlign=middle;whiteSpace=wrap;rounded=0;" parent="1" vertex="1">
          <mxGeometry x="646" y="444" width="120" height="20" as="geometry" />
        </mxCell>
        <mxCell id="6LV5nUp8noVy1dfyO0To-155" value="status" style="text;html=1;align=left;verticalAlign=middle;whiteSpace=wrap;rounded=0;" parent="1" vertex="1">
          <mxGeometry x="646" y="464" width="120" height="20" as="geometry" />
        </mxCell>
        <mxCell id="6LV5nUp8noVy1dfyO0To-156" value="translated_article_id" style="text;html=1;align=left;verticalAlign=middle;whiteSpace=wrap;rounded=0;" parent="1" vertex="1">
          <mxGeometry x="646" y="484" width="120" height="20" as="geometry" />
        </mxCell>
        <mxCell id="6LV5nUp8noVy1dfyO0To-157" value="FK2" style="text;html=1;align=center;verticalAlign=middle;whiteSpace=wrap;rounded=0;" parent="1" vertex="1">
          <mxGeometry x="616" y="422" width="30" height="20" as="geometry" />
        </mxCell>
        <mxCell id="6LV5nUp8noVy1dfyO0To-158" value="FK3" style="text;html=1;align=center;verticalAlign=middle;whiteSpace=wrap;rounded=0;" parent="1" vertex="1">
          <mxGeometry x="616" y="444" width="30" height="20" as="geometry" />
        </mxCell>
        <mxCell id="6LV5nUp8noVy1dfyO0To-159" value="created_at" style="text;html=1;align=left;verticalAlign=middle;whiteSpace=wrap;rounded=0;" parent="1" vertex="1">
          <mxGeometry x="646" y="504" width="120" height="20" as="geometry" />
        </mxCell>
        <mxCell id="6LV5nUp8noVy1dfyO0To-160" value="deleted_at" style="text;html=1;align=left;verticalAlign=middle;whiteSpace=wrap;rounded=0;" parent="1" vertex="1">
          <mxGeometry x="646" y="524" width="120" height="20" as="geometry" />
        </mxCell>
        <mxCell id="6LV5nUp8noVy1dfyO0To-161" value="FK1" style="text;html=1;align=center;verticalAlign=middle;whiteSpace=wrap;rounded=0;" parent="1" vertex="1">
          <mxGeometry x="616" y="402" width="30" height="20" as="geometry" />
        </mxCell>
        <mxCell id="6LV5nUp8noVy1dfyO0To-162" value="FK3" style="text;html=1;align=center;verticalAlign=middle;whiteSpace=wrap;rounded=0;" parent="1" vertex="1">
          <mxGeometry x="616" y="485" width="30" height="20" as="geometry" />
        </mxCell>
        <mxCell id="G2iC6kTOo3n6NB2YhTY6-1" value="" style="shape=internalStorage;whiteSpace=wrap;html=1;backgroundOutline=1;dx=30;dy=20;" parent="1" vertex="1">
          <mxGeometry x="-20" y="310" width="150" height="105" as="geometry" />
        </mxCell>
        <mxCell id="G2iC6kTOo3n6NB2YhTY6-2" value="Style prompts" style="text;html=1;align=center;verticalAlign=middle;whiteSpace=wrap;rounded=0;" parent="1" vertex="1">
          <mxGeometry x="10" y="310" width="120" height="20" as="geometry" />
        </mxCell>
        <mxCell id="G2iC6kTOo3n6NB2YhTY6-3" value="id" style="text;html=1;align=left;verticalAlign=middle;whiteSpace=wrap;rounded=0;" parent="1" vertex="1">
          <mxGeometry x="10" y="330" width="120" height="20" as="geometry" />
        </mxCell>
        <mxCell id="G2iC6kTOo3n6NB2YhTY6-4" value="text" style="text;html=1;align=left;verticalAlign=middle;whiteSpace=wrap;rounded=0;" parent="1" vertex="1">
          <mxGeometry x="10" y="350" width="120" height="20" as="geometry" />
        </mxCell>
        <mxCell id="G2iC6kTOo3n6NB2YhTY6-29" style="edgeStyle=orthogonalEdgeStyle;rounded=0;orthogonalLoop=1;jettySize=auto;html=1;exitX=0;exitY=0.5;exitDx=0;exitDy=0;entryX=0;entryY=0.5;entryDx=0;entryDy=0;startArrow=ERone;startFill=0;endArrow=ERzeroToMany;endFill=0;" parent="1" source="G2iC6kTOo3n6NB2YhTY6-6" target="G2iC6kTOo3n6NB2YhTY6-27" edge="1">
          <mxGeometry relative="1" as="geometry" />
        </mxCell>
        <mxCell id="G2iC6kTOo3n6NB2YhTY6-6" value="PK" style="text;html=1;align=center;verticalAlign=middle;whiteSpace=wrap;rounded=0;" parent="1" vertex="1">
          <mxGeometry x="-20" y="330" width="30" height="20" as="geometry" />
        </mxCell>
        <mxCell id="G2iC6kTOo3n6NB2YhTY6-16" value="created_at" style="text;html=1;align=left;verticalAlign=middle;whiteSpace=wrap;rounded=0;" parent="1" vertex="1">
          <mxGeometry x="10" y="370" width="120" height="20" as="geometry" />
        </mxCell>
        <mxCell id="G2iC6kTOo3n6NB2YhTY6-17" value="deleted_at" style="text;html=1;align=left;verticalAlign=middle;whiteSpace=wrap;rounded=0;" parent="1" vertex="1">
          <mxGeometry x="10" y="390" width="120" height="20" as="geometry" />
        </mxCell>
        <mxCell id="G2iC6kTOo3n6NB2YhTY6-18" value="" style="shape=internalStorage;whiteSpace=wrap;html=1;backgroundOutline=1;dx=30;dy=20;" parent="1" vertex="1">
          <mxGeometry x="-20" y="429.5" width="150" height="160.5" as="geometry" />
        </mxCell>
        <mxCell id="G2iC6kTOo3n6NB2YhTY6-19" value="Configs" style="text;html=1;align=center;verticalAlign=middle;whiteSpace=wrap;rounded=0;" parent="1" vertex="1">
          <mxGeometry x="10" y="429.5" width="120" height="20" as="geometry" />
        </mxCell>
        <mxCell id="G2iC6kTOo3n6NB2YhTY6-20" value="id" style="text;html=1;align=left;verticalAlign=middle;whiteSpace=wrap;rounded=0;" parent="1" vertex="1">
          <mxGeometry x="10" y="449.5" width="120" height="20" as="geometry" />
        </mxCell>
        <mxCell id="G2iC6kTOo3n6NB2YhTY6-21" value="user_id" style="text;html=1;align=left;verticalAlign=middle;whiteSpace=wrap;rounded=0;" parent="1" vertex="1">
          <mxGeometry x="10" y="469.5" width="120" height="20" as="geometry" />
        </mxCell>
        <mxCell id="G2iC6kTOo3n6NB2YhTY6-22" value="PK" style="text;html=1;align=center;verticalAlign=middle;whiteSpace=wrap;rounded=0;" parent="1" vertex="1">
          <mxGeometry x="-20" y="449.5" width="30" height="20" as="geometry" />
        </mxCell>
        <mxCell id="G2iC6kTOo3n6NB2YhTY6-23" value="prompt_id" style="text;html=1;align=left;verticalAlign=middle;whiteSpace=wrap;rounded=0;" parent="1" vertex="1">
          <mxGeometry x="10" y="489.5" width="120" height="20" as="geometry" />
        </mxCell>
        <mxCell id="G2iC6kTOo3n6NB2YhTY6-24" value="language_id" style="text;html=1;align=left;verticalAlign=middle;whiteSpace=wrap;rounded=0;" parent="1" vertex="1">
          <mxGeometry x="10" y="529.5" width="120" height="20" as="geometry" />
        </mxCell>
        <mxCell id="G2iC6kTOo3n6NB2YhTY6-25" value="name" style="text;html=1;align=left;verticalAlign=middle;whiteSpace=wrap;rounded=0;" parent="1" vertex="1">
          <mxGeometry x="10" y="509.5" width="120" height="20" as="geometry" />
        </mxCell>
        <mxCell id="G2iC6kTOo3n6NB2YhTY6-26" value="FK1" style="text;html=1;align=center;verticalAlign=middle;whiteSpace=wrap;rounded=0;" parent="1" vertex="1">
          <mxGeometry x="-20" y="469.5" width="30" height="20" as="geometry" />
        </mxCell>
        <mxCell id="G2iC6kTOo3n6NB2YhTY6-27" value="FK2" style="text;html=1;align=center;verticalAlign=middle;whiteSpace=wrap;rounded=0;" parent="1" vertex="1">
          <mxGeometry x="-20" y="490.5" width="30" height="20" as="geometry" />
        </mxCell>
        <mxCell id="G2iC6kTOo3n6NB2YhTY6-32" value="FK3" style="text;html=1;align=center;verticalAlign=middle;whiteSpace=wrap;rounded=0;" parent="1" vertex="1">
          <mxGeometry x="400" y="693" width="30" height="20" as="geometry" />
        </mxCell>
        <mxCell id="G2iC6kTOo3n6NB2YhTY6-40" value="" style="shape=internalStorage;whiteSpace=wrap;html=1;backgroundOutline=1;dx=30;dy=20;" parent="1" vertex="1">
          <mxGeometry x="616" y="570.5" width="150" height="80.5" as="geometry" />
        </mxCell>
        <mxCell id="G2iC6kTOo3n6NB2YhTY6-41" value="Languages" style="text;html=1;align=center;verticalAlign=middle;whiteSpace=wrap;rounded=0;" parent="1" vertex="1">
          <mxGeometry x="646" y="570.5" width="120" height="20" as="geometry" />
        </mxCell>
        <mxCell id="G2iC6kTOo3n6NB2YhTY6-57" style="edgeStyle=orthogonalEdgeStyle;rounded=0;orthogonalLoop=1;jettySize=auto;html=1;exitX=1;exitY=0.25;exitDx=0;exitDy=0;entryX=1;entryY=0.5;entryDx=0;entryDy=0;startArrow=ERone;startFill=0;endArrow=ERzeroToMany;endFill=0;" parent="1" source="G2iC6kTOo3n6NB2YhTY6-42" target="6LV5nUp8noVy1dfyO0To-154" edge="1">
          <mxGeometry relative="1" as="geometry" />
        </mxCell>
        <mxCell id="G2iC6kTOo3n6NB2YhTY6-42" value="id" style="text;html=1;align=left;verticalAlign=middle;whiteSpace=wrap;rounded=0;" parent="1" vertex="1">
          <mxGeometry x="646" y="590.5" width="120" height="20" as="geometry" />
        </mxCell>
        <mxCell id="G2iC6kTOo3n6NB2YhTY6-43" value="name" style="text;html=1;align=left;verticalAlign=middle;whiteSpace=wrap;rounded=0;" parent="1" vertex="1">
          <mxGeometry x="646" y="610.5" width="120" height="20" as="geometry" />
        </mxCell>
        <mxCell id="G2iC6kTOo3n6NB2YhTY6-44" value="iso_code" style="text;html=1;align=left;verticalAlign=middle;whiteSpace=wrap;rounded=0;" parent="1" vertex="1">
          <mxGeometry x="646" y="630.5" width="120" height="20" as="geometry" />
        </mxCell>
        <mxCell id="G2iC6kTOo3n6NB2YhTY6-45" value="PK" style="text;html=1;align=center;verticalAlign=middle;whiteSpace=wrap;rounded=0;" parent="1" vertex="1">
          <mxGeometry x="616" y="590.5" width="30" height="20" as="geometry" />
        </mxCell>
        <mxCell id="G2iC6kTOo3n6NB2YhTY6-54" value="created_at" style="text;html=1;align=left;verticalAlign=middle;whiteSpace=wrap;rounded=0;" parent="1" vertex="1">
          <mxGeometry x="10" y="549.5" width="120" height="20" as="geometry" />
        </mxCell>
        <mxCell id="G2iC6kTOo3n6NB2YhTY6-55" value="FK3" style="text;html=1;align=center;verticalAlign=middle;whiteSpace=wrap;rounded=0;" parent="1" vertex="1">
          <mxGeometry x="-20" y="529.5" width="30" height="20" as="geometry" />
        </mxCell>
        <mxCell id="G2iC6kTOo3n6NB2YhTY6-58" style="edgeStyle=orthogonalEdgeStyle;rounded=0;orthogonalLoop=1;jettySize=auto;html=1;exitX=1;exitY=0.75;exitDx=0;exitDy=0;entryX=1;entryY=0.5;entryDx=0;entryDy=0;startArrow=ERone;startFill=0;endArrow=ERzeroToMany;endFill=0;" parent="1" source="G2iC6kTOo3n6NB2YhTY6-42" target="6LV5nUp8noVy1dfyO0To-152" edge="1">
          <mxGeometry relative="1" as="geometry">
            <mxPoint x="776" y="606" as="sourcePoint" />
            <mxPoint x="776" y="464" as="targetPoint" />
            <Array as="points">
              <mxPoint x="795" y="606" />
              <mxPoint x="795" y="432" />
            </Array>
          </mxGeometry>
        </mxCell>
        <mxCell id="G2iC6kTOo3n6NB2YhTY6-63" value="token_uuid" style="text;html=1;align=left;verticalAlign=middle;whiteSpace=wrap;rounded=0;" parent="1" vertex="1">
          <mxGeometry x="10" y="718.5" width="120" height="20" as="geometry" />
        </mxCell>
        <mxCell id="5gVwGk4z7zKeYHdQdm-r-1" value="deleted_at" style="text;html=1;align=left;verticalAlign=middle;whiteSpace=wrap;rounded=0;" vertex="1" parent="1">
          <mxGeometry x="10" y="570" width="120" height="20" as="geometry" />
        </mxCell>
      </root>
    </mxGraphModel>
  </diagram>
</mxfile>
